<?xml version="1.0" standalone="no"?><svg xmlns="http://www.w3.org/2000/svg" viewBox="0 0 1440 320"><path fill="#FDCE36" fill-opacity="1" d="M0,128L30,106.7C60,85,120,43,180,58.7C240,75,300,149,360,176C420,203,480,181,540,186.7C600,192,660,224,720,218.7C780,213,840,171,900,170.7C960,171,1020,213,1080,224C1140,235,1200,213,1260,170.7C1320,128,1380,64,1410,32L1440,0L1440,320L1410,320C1380,320,1320,320,1260,320C1200,320,1140,320,1080,320C1020,320,960,320,900,320C840,320,780,320,720,320C660,320,600,320,540,320C480,320,420,320,360,320C300,320,240,320,180,320C120,320,60,320,30,320L0,320Z"></path></svg>